<svg width="24" height="24" viewBox="0 0 24 24" fill="none" xmlns="http://www.w3.org/2000/svg">
<path fill-rule="evenodd" clip-rule="evenodd" d="M17.0322 2.87868C15.9671 1.70711 14.2403 1.70711 13.1753 2.87868L11.8896 4.29289C11.8348 4.35317 11.7828 4.41538 11.7337 4.47931C11.6845 4.41539 11.6325 4.3532 11.5778 4.29293L10.2921 2.87871C9.22704 1.70714 7.50023 1.70714 6.43516 2.87871C5.3701 4.05029 5.3701 5.94978 6.43516 7.12136L7.23393 8H2V14H3.81818V22H20.1818V14H22V8H16.2334L17.0322 7.12132C18.0973 5.94975 18.0973 4.05025 17.0322 2.87868ZM14.4609 7.12132L15.7465 5.70711C16.1016 5.31658 16.1016 4.68342 15.7465 4.29289C15.3915 3.90237 14.8159 3.90237 14.4609 4.29289L13.1753 5.70711C12.8202 6.09763 12.8202 6.7308 13.1753 7.12132C13.5303 7.51184 14.1059 7.51184 14.4609 7.12132ZM10.2921 5.70714L9.00646 4.29293C8.65144 3.9024 8.07583 3.9024 7.72081 4.29293C7.36579 4.68345 7.36579 5.31662 7.72081 5.70714L9.00646 7.12136C9.36148 7.51188 9.93709 7.51188 10.2921 7.12136C10.6471 6.73083 10.6471 6.09767 10.2921 5.70714ZM20.1818 10V12H3.81818V10H20.1818ZM12.8334 14H18.3636V20H12.8334V14ZM11.1667 14V20H5.63636V14H11.1667Z" fill="#27272F"/>
</svg>
