<svg width="24" height="24" viewBox="0 0 24 24" fill="none" xmlns="http://www.w3.org/2000/svg">
<path d="M14.6773 7.50471C14.6773 6.50055 15.4914 5.68652 16.4955 5.68652C17.4997 5.68652 18.3137 6.50055 18.3137 7.50471C18.3137 8.50886 17.4997 9.32289 16.4955 9.32289C15.4914 9.32289 14.6773 8.50886 14.6773 7.50471Z" fill="#27272F"/>
<path d="M16.4955 14.6292C15.4914 14.6292 14.6773 15.4432 14.6773 16.4474C14.6773 17.4515 15.4914 18.2655 16.4955 18.2655C17.4997 18.2655 18.3137 17.4515 18.3137 16.4474C18.3137 15.4432 17.4997 14.6292 16.4955 14.6292Z" fill="#27272F"/>
<path d="M5.68652 16.4474C5.68652 15.4432 6.50055 14.6292 7.50471 14.6292C8.50886 14.6292 9.32289 15.4432 9.32289 16.4474C9.32289 17.4515 8.50886 18.2655 7.50471 18.2655C6.50055 18.2655 5.68652 17.4515 5.68652 16.4474Z" fill="#27272F"/>
<path d="M7.50471 5.68652C6.50055 5.68652 5.68652 6.50055 5.68652 7.50471C5.68652 8.50886 6.50055 9.32289 7.50471 9.32289C8.50886 9.32289 9.32289 8.50886 9.32289 7.50471C9.32289 6.50055 8.50886 5.68652 7.50471 5.68652Z" fill="#27272F"/>
<path d="M10.1818 12C10.1818 10.9958 10.9958 10.1818 12 10.1818C13.0042 10.1818 13.8182 10.9958 13.8182 12C13.8182 13.0042 13.0042 13.8182 12 13.8182C10.9958 13.8182 10.1818 13.0042 10.1818 12Z" fill="#27272F"/>
<path fill-rule="evenodd" clip-rule="evenodd" d="M2 4.72727C2 3.22104 3.22104 2 4.72727 2H19.2727C20.779 2 22 3.22104 22 4.72727V19.2727C22 20.779 20.779 22 19.2727 22H4.72727C3.22104 22 2 20.779 2 19.2727V4.72727ZM4.72727 3.81818H19.2727C19.7748 3.81818 20.1818 4.2252 20.1818 4.72727V19.2727C20.1818 19.7748 19.7748 20.1818 19.2727 20.1818H4.72727C4.2252 20.1818 3.81818 19.7748 3.81818 19.2727V4.72727C3.81818 4.2252 4.2252 3.81818 4.72727 3.81818Z" fill="#27272F"/>
</svg>
