<svg width="24" height="24" viewBox="0 0 24 24" fill="none" xmlns="http://www.w3.org/2000/svg">
<path d="M12 24C14.3734 24 16.6935 23.2962 18.6668 21.9776C20.6402 20.6591 22.1783 18.7849 23.0866 16.5922C23.9948 14.3995 24.2324 11.9867 23.7694 9.65892C23.3064 7.33115 22.1635 5.19295 20.4853 3.51472C18.807 1.83649 16.6688 0.693605 14.3411 0.230582C12.0133 -0.232441 9.6005 0.00519943 7.40778 0.913451C5.21507 1.8217 3.34092 3.35977 2.02235 5.33316C0.70377 7.30655 -2.28882e-05 9.62663 -2.28882e-05 12C-2.28882e-05 15.1826 1.26428 18.2348 3.51472 20.4853C5.76515 22.7357 8.81738 24 12 24ZM12 2.00001C13.9778 2.00001 15.9112 2.58649 17.5557 3.68531C19.2002 4.78412 20.4819 6.34591 21.2388 8.17317C21.9957 10.0004 22.1937 12.0111 21.8078 13.9509C21.422 15.8907 20.4696 17.6725 19.0711 19.0711C17.6725 20.4696 15.8907 21.422 13.9509 21.8079C12.0111 22.1937 10.0004 21.9957 8.17316 21.2388C6.3459 20.4819 4.78409 19.2002 3.68528 17.5557C2.58647 15.9112 1.99998 13.9778 1.99998 12C1.99998 9.34784 3.05357 6.8043 4.92893 4.92894C6.8043 3.05358 9.34781 2.00001 12 2.00001Z" fill="#FFFFFE"/>
<path d="M7.01001 11H18.01V13H7.01001V11Z" fill="#FFFFFE"/>
<path d="M9.95996 8.09998L6.00998 12.05L9.95996 16" fill="#FFFFFE"/>
</svg>
