<svg width="22" height="24" viewBox="0 0 22 24" fill="none" xmlns="http://www.w3.org/2000/svg">
<path d="M11.1261 3.71569C9.26506 2.10161 9.27308 5.33975 11.1261 3.71569V3.71569ZM11.1406 3.70103C9.51632 1.84807 12.7553 1.83992 11.1406 3.70103V3.70103ZM12.3229 3.30298C12.4968 3.40029 12.5698 3.603 12.543 3.78941C12.4882 4.16458 12.0265 4.47131 11.155 3.71569C11.7095 3.22959 12.0997 3.17797 12.3229 3.30298ZM11.1404 3.73029C9.52604 5.59127 12.7651 5.58319 11.1404 3.73029V3.73029ZM4.52313 8.85821C4.52313 8.85821 4.72479 9.63123 4.47274 10.169C4.47274 10.169 5.26258 10.2195 5.74992 8.94223C6.23726 7.66499 5.83393 7.22275 6.74141 6.08265C7.64896 4.94255 10.017 5.15692 11.1353 6.66939C12.4074 6.66939 13.4386 7.70058 13.4386 8.97273C13.4386 9.79437 13.007 10.5136 12.3594 10.9212C12.2811 10.9753 12.2246 11.0068 12.2043 11.0146C12.2039 11.0149 12.2036 11.015 12.2036 11.015C12.1989 11.0168 12.1959 11.0179 12.1959 11.0179L12.196 11.0186C12.074 11.0659 11.9597 11.1583 11.8811 11.2862C11.7202 11.548 11.8681 11.7872 12.0887 11.9068C12.1999 11.9672 12.3335 11.9674 12.4593 11.9198C13.0111 11.6848 13.4169 11.2459 13.6788 10.7243C13.7906 10.822 13.9544 10.8447 14.1097 10.8117C14.2335 10.7852 14.3354 10.6987 14.4002 10.5808C14.7434 9.88979 14.6867 9.09872 14.3921 8.40255C14.645 8.49921 14.8512 8.34128 14.9456 8.12463C14.9961 8.00855 14.9849 7.87532 14.9266 7.75409C14.2272 6.43931 12.3597 6.11126 11.1354 6.66939C12.2536 5.15692 14.6217 4.94255 15.5292 6.08265C16.4367 7.22275 16.0334 7.66499 16.5207 8.94223C17.0081 10.2195 17.798 10.169 17.798 10.169C17.5459 9.63123 17.7475 8.85821 17.7475 8.85821C18.5374 11.9504 20.1282 10.7397 20.1282 10.7397C17.3307 5.75637 11.1354 0.799995 11.1354 0.799995C11.1354 0.799995 4.93994 5.75637 2.14255 10.7397C2.14255 10.7397 3.73329 11.9504 4.52313 8.85821Z" fill="white"/>
<path d="M7.34402 7.75412C7.28562 7.87535 7.27454 8.00851 7.32512 8.1246C7.41944 8.34132 7.62566 8.49924 7.87849 8.40252C7.58401 9.09875 7.52724 9.88976 7.87054 10.5808C7.93539 10.6988 8.0372 10.7852 8.16091 10.8117C8.31623 10.8448 8.48009 10.822 8.59187 10.7243C8.85369 11.2459 9.25956 11.6848 9.81129 11.9198C9.93715 11.9675 10.0708 11.9672 10.182 11.9068C10.4027 11.7872 10.5505 11.548 10.3897 11.2862C10.3111 11.1583 10.1966 11.066 10.0747 11.0186L10.0747 11.0179C10.0747 11.0179 10.0718 11.0168 10.0671 11.015C10.0671 11.015 10.0667 11.0149 10.0663 11.0146C10.0461 11.0068 9.98943 10.9751 9.91115 10.9212C9.26366 10.5135 8.83205 9.79434 8.83205 8.9727C8.83205 7.70054 9.8633 6.66942 11.1353 6.66942C9.91089 6.1113 8.04346 6.43927 7.34402 7.75412Z" fill="white"/>
<path d="M3.87007 11.2645C3.82412 11.3752 3.87678 11.5018 3.98726 11.5479C4.098 11.5937 4.22471 11.5412 4.27059 11.4306C4.31648 11.32 4.26401 11.1931 4.15347 11.1472C4.04286 11.1015 3.91596 11.1539 3.87007 11.2645Z" fill="#794DFD"/>
<path d="M4.9132 10.8558C4.83682 11.0401 4.92415 11.2515 5.10841 11.3281C5.29274 11.4044 5.50411 11.317 5.5805 11.1328C5.65702 10.9483 5.56955 10.737 5.38536 10.6605C5.20097 10.5842 4.98966 10.6714 4.9132 10.8558Z" fill="#794DFD"/>
<path d="M6.12396 9.98007C6.00833 10.2586 6.14064 10.578 6.41922 10.6936C6.69766 10.8093 7.01729 10.6771 7.13285 10.3986C7.24842 10.12 7.11623 9.80064 6.83766 9.68501C6.55902 9.56951 6.23952 9.70156 6.12396 9.98007Z" fill="#794DFD"/>
<path d="M18.2834 11.5479C18.3939 11.5017 18.4466 11.3752 18.4006 11.2645C18.3547 11.1539 18.2278 11.1015 18.1172 11.1472C18.0067 11.1931 17.9541 11.32 18.0001 11.4306C18.046 11.5412 18.1727 11.5937 18.2834 11.5479Z" fill="#794DFD"/>
<path d="M17.1622 11.3281C17.3466 11.2516 17.4339 11.0401 17.3575 10.8559C17.281 10.6714 17.0697 10.5842 16.8853 10.6605C16.7011 10.737 16.6137 10.9483 16.6901 11.1328C16.7665 11.3171 16.9779 11.4044 17.1622 11.3281Z" fill="#794DFD"/>
<path d="M15.8515 10.6936C16.1301 10.578 16.2624 10.2586 16.1468 9.98007C16.0312 9.70156 15.7117 9.56945 15.4331 9.68494C15.1544 9.80064 15.0223 10.12 15.1378 10.3986C15.2534 10.6771 15.5731 10.8093 15.8515 10.6936Z" fill="#794DFD"/>
<path d="M12.7251 9.48669C12.7767 9.32609 12.8053 9.15494 12.8053 8.97713C12.8053 8.79939 12.7767 8.62823 12.7251 8.46763C12.6273 8.73023 12.2816 8.97713 11.5511 8.97713C12.2816 8.97713 12.6273 9.22422 12.7251 9.48669Z" fill="#794DFD"/>
<path d="M9.91003 7.85961C10.1861 7.8147 10.5717 7.99134 10.9357 8.62207C10.5706 7.98938 10.6115 7.5667 10.7898 7.35063C10.4441 7.42494 10.1394 7.60718 9.91003 7.85961Z" fill="#794DFD"/>
<path d="M12.3716 7.85961C12.1422 7.60718 11.8375 7.42494 11.4919 7.35063C11.6702 7.5667 11.7111 7.98938 11.3459 8.62207C11.71 7.99134 12.0955 7.8147 12.3716 7.85961Z" fill="#794DFD"/>
<path d="M9.91003 10.0948C10.1394 10.3473 10.4441 10.5295 10.7898 10.6038C10.6115 10.3878 10.5706 9.96481 10.9357 9.33245C10.5717 9.96312 10.1861 10.1399 9.91003 10.0948Z" fill="#794DFD"/>
<path d="M9.55661 8.46763C9.50492 8.62823 9.47644 8.79939 9.47644 8.97713C9.47644 9.15494 9.50492 9.32609 9.55661 9.48669C9.65431 9.22422 10.0001 8.97713 10.7307 8.97713C10.0001 8.97713 9.65431 8.73023 9.55661 8.46763Z" fill="#794DFD"/>
<path d="M12.3716 10.0948C12.0955 10.1399 11.71 9.96312 11.3459 9.33245C11.7111 9.96481 11.6702 10.3878 11.4919 10.6038C11.8375 10.5295 12.1422 10.3473 12.3716 10.0948Z" fill="#794DFD"/>
<path d="M11.1408 9.22058C11.2752 9.22058 11.3841 9.1116 11.3841 8.97714C11.3841 8.84268 11.2752 8.73383 11.1408 8.73383C11.0064 8.73383 10.8976 8.84268 10.8976 8.97714C10.8976 9.1116 11.0064 9.22058 11.1408 9.22058Z" fill="white"/>
<path d="M11.1261 3.71567C9.26507 2.10159 9.27309 5.33972 11.1261 3.71567V3.71567Z" fill="#794DFD"/>
<path d="M11.1407 3.70105C9.51635 1.84809 12.7553 1.83994 11.1407 3.70105V3.70105Z" fill="#794DFD"/>
<path d="M11.1405 3.73034C9.526 5.59132 12.765 5.58324 11.1405 3.73034V3.73034Z" fill="#794DFD"/>
<path d="M12.543 3.78935C12.5698 3.60294 12.4968 3.40023 12.3229 3.30299C12.0997 3.17791 11.7095 3.2296 11.1551 3.71563C12.0265 4.47125 12.4882 4.16452 12.543 3.78935Z" fill="#794DFD"/>
<path d="M4.75436 14.1264C4.78532 14.018 4.82736 13.933 4.86679 13.8699C5.02856 13.611 5.30218 13.4565 5.59874 13.4565C5.91447 13.4565 6.20458 13.6332 6.35573 13.9175C6.3979 13.9969 6.44059 14.1062 6.46047 14.2457C6.55002 14.2239 6.63267 14.2155 6.70639 14.2155C7.19477 14.2155 7.57737 14.5897 7.57737 15.0672C7.57737 15.3283 7.45979 15.5907 7.21061 15.7847C7.41045 15.992 7.48912 16.2363 7.48143 16.4574C7.46546 16.9171 7.0884 17.2773 6.62316 17.2774H6.62289C6.52513 17.2774 6.39712 17.2613 6.25288 17.2035C6.22192 17.312 6.17988 17.397 6.14044 17.4601C5.97873 17.7189 5.70505 17.8736 5.40855 17.8736C5.09289 17.8736 4.80285 17.697 4.65164 17.4126C4.60946 17.3333 4.56677 17.2239 4.54689 17.0844C4.45734 17.1063 4.37476 17.1146 4.30104 17.1146H4.30084C3.98127 17.1146 3.6982 16.9548 3.54353 16.687C3.38958 16.4205 3.39121 16.0995 3.54777 15.8283C3.59535 15.7459 3.67298 15.6426 3.79662 15.5456C3.59666 15.3382 3.51798 15.0939 3.52568 14.8727C3.54171 14.4128 3.9189 14.0525 4.38427 14.0525C4.48198 14.0525 4.61005 14.0686 4.75436 14.1264ZM2.86164 15.48C0.806688 15.3362 2.8705 19.5687 4.0224 17.8608C2.8705 19.5687 7.56753 19.8972 6.66454 18.0457C7.56753 19.8972 10.2005 15.9933 8.1456 15.8499C10.2005 15.9933 8.13699 11.7618 6.98483 13.4693C8.13699 11.7618 3.43964 11.4324 4.34275 13.2845C3.43964 11.4324 0.806688 15.3362 2.86164 15.48Z" fill="white"/>
<path d="M17.8991 17.1146C17.8253 17.1146 17.7426 17.1063 17.6531 17.0844C17.6331 17.2239 17.5904 17.3332 17.5483 17.4124C17.3972 17.6969 17.1072 17.8735 16.7916 17.8736H16.7914C16.4949 17.8736 16.2213 17.7191 16.0595 17.4603C16.0201 17.3972 15.9781 17.312 15.947 17.2035C15.8027 17.2613 15.6747 17.2774 15.5769 17.2774C15.1116 17.2774 14.7345 16.9173 14.7185 16.4576C14.7107 16.2365 14.7893 15.9922 14.9891 15.785C14.7555 15.6014 14.6225 15.3424 14.6225 15.0673C14.6225 14.5897 15.0052 14.2155 15.4937 14.2155C15.5674 14.2155 15.65 14.2239 15.7396 14.2457C15.7595 14.1062 15.8021 13.9969 15.8443 13.9175C15.9955 13.6332 16.2856 13.4565 16.6012 13.4565C16.8979 13.4565 17.1715 13.611 17.3332 13.8699C17.3727 13.9329 17.4147 14.018 17.4457 14.1264C17.59 14.0687 17.718 14.0526 17.8157 14.0526C18.2812 14.0526 18.6584 14.4128 18.6744 14.8727C18.6821 15.0939 18.6034 15.3382 18.4035 15.5455C18.6526 15.7395 18.7702 16.0018 18.7702 16.2628C18.7702 16.7404 18.3876 17.1146 17.8991 17.1146ZM17.8573 13.2845C18.7603 11.4324 14.063 11.7618 15.2151 13.4693C14.063 11.7618 11.9995 15.9933 14.0544 15.8499C11.9995 15.9933 14.6324 19.8972 15.5354 18.0457C14.6324 19.8972 19.3295 19.5687 18.1776 17.8608C19.3295 19.5687 21.3933 15.3362 19.3383 15.48C21.3933 15.3362 18.7603 11.4324 17.8573 13.2845Z" fill="white"/>
<path d="M16.9288 16.0099C18.1865 17.8739 15.5283 18.0601 16.5141 16.0391C15.5283 18.0601 14.0384 15.8514 16.2817 15.6943C14.0384 15.8514 15.206 13.4563 16.4639 15.3202C15.206 13.4563 17.8644 13.2697 16.8786 15.2907C17.8644 13.2697 19.3543 15.4791 17.1113 15.6355C19.3543 15.4791 18.1865 17.8739 16.9288 16.0099ZM18.7701 16.2627C18.7701 16.0017 18.6525 15.7395 18.4035 15.5455C18.6034 15.3382 18.6821 15.0939 18.6744 14.8727C18.6583 14.4128 18.2812 14.0525 17.8157 14.0525C17.718 14.0525 17.5899 14.0686 17.4457 14.1264C17.4147 14.018 17.3727 13.9329 17.3333 13.8699C17.1715 13.611 16.8979 13.4565 16.6012 13.4565C16.2855 13.4565 15.9955 13.6332 15.8443 13.9175C15.8022 13.9968 15.7595 14.1062 15.7395 14.2457C15.65 14.2239 15.5674 14.2155 15.4936 14.2155C15.0052 14.2155 14.6226 14.5897 14.6226 15.0673C14.6226 15.3423 14.7555 15.6013 14.9891 15.7849C14.7893 15.9922 14.7107 16.2364 14.7184 16.4576C14.7345 16.9172 15.1116 17.2774 15.5769 17.2774C15.6747 17.2774 15.8027 17.2613 15.9471 17.2035C15.978 17.312 16.0201 17.3971 16.0595 17.4603C16.2213 17.7191 16.4949 17.8735 16.7914 17.8735H16.7916C17.1072 17.8735 17.3971 17.6968 17.5483 17.4124C17.5905 17.3331 17.6331 17.2238 17.653 17.0844C17.7427 17.1063 17.8253 17.1146 17.899 17.1146C18.3875 17.1146 18.7702 16.7403 18.7701 16.2627Z" fill="#794DFD"/>
<path d="M5.32135 15.2908C4.33565 13.2698 6.99402 13.4564 5.73614 15.3204C6.99402 13.4564 8.16157 15.8515 5.91825 15.6943C8.16157 15.8515 6.67165 18.0602 5.68589 16.0391C6.67165 18.0602 4.01354 17.8739 5.27116 16.01C4.01354 17.8739 2.84574 15.4792 5.08879 15.6356C2.84574 15.4792 4.33565 13.2698 5.32135 15.2908ZM3.52574 14.8728C3.51805 15.0939 3.59666 15.3383 3.79663 15.5456C3.67298 15.6427 3.59536 15.746 3.54778 15.8284C3.39122 16.0996 3.38965 16.4206 3.54354 16.6871C3.69821 16.9548 3.98134 17.1147 4.30085 17.1147H4.30104C4.37483 17.1147 4.45734 17.1064 4.5469 17.0845C4.56684 17.224 4.60953 17.3334 4.6517 17.4127C4.80292 17.6971 5.0929 17.8737 5.40856 17.8737C5.70512 17.8737 5.97874 17.7191 6.14051 17.4602C6.17994 17.397 6.22192 17.3121 6.25294 17.2036C6.39718 17.2614 6.5252 17.2775 6.6229 17.2775H6.62316C7.08847 17.2773 7.46546 16.9172 7.48149 16.4575C7.48919 16.2364 7.41052 15.9921 7.21061 15.7848C7.45986 15.5908 7.57744 15.3284 7.57744 15.0673C7.57744 14.5897 7.19477 14.2156 6.70639 14.2156C6.63267 14.2156 6.55003 14.224 6.46054 14.2458C6.44059 14.1063 6.3979 13.9969 6.3558 13.9176C6.20458 13.6332 5.91454 13.4565 5.59881 13.4565C5.30219 13.4565 5.02857 13.611 4.86686 13.8699C4.82743 13.9331 4.78539 14.0181 4.75443 14.1265C4.61005 14.0687 4.48204 14.0526 4.38434 14.0526C3.9189 14.0526 3.54178 14.4129 3.52574 14.8728Z" fill="#794DFD"/>
<path d="M20.6501 11.9143C20.6501 11.9143 20.1092 12.2224 20.4459 12.9672C20.2094 12.9544 19.9782 13.2089 20.2517 13.593C20.6495 14.1519 21.1039 14.9998 20.6511 16.8144C19.9168 18.6916 18.0893 20.0253 15.955 20.0253C15.7446 20.0253 15.5408 20.0089 15.3429 19.9806C12.4074 19.3364 12.3337 16.4052 12.3337 16.4052C11.8339 17.1898 12.2522 17.9519 12.2522 17.9519C12.2522 17.9519 11.3951 17.3218 11.5968 16.0109C11.7985 14.7001 11.1 14.5362 11.1 14.5362C11.1 14.5362 10.4015 14.7001 10.6032 16.0109C10.8048 17.3218 9.94773 17.9519 9.94773 17.9519C9.94773 17.9519 10.366 17.1898 9.86625 16.4052C9.86625 16.4052 9.7926 19.3364 6.85709 19.9806C6.65921 20.0089 6.45533 20.0253 6.24494 20.0253C4.11067 20.0253 2.28325 18.6916 1.54882 16.8144C1.09609 14.9998 1.55052 14.1519 1.9483 13.593C2.22173 13.2089 1.99054 12.9544 1.75407 12.9672C2.09078 12.2224 1.54987 11.9143 1.54987 11.9143C1.08084 12.9697 0.799988 14.0087 0.799988 14.9838C0.799988 17.9909 3.23779 20.4287 6.24494 20.4287C6.24722 20.4287 6.24943 20.4285 6.25171 20.4285C6.32563 20.4284 6.39889 20.4264 6.47143 20.4228C6.52618 20.4201 6.58028 20.4159 6.63418 20.4112C6.64911 20.41 6.66423 20.4092 6.67909 20.4078C9.11116 20.1849 10.6561 18.1655 10.6561 18.1655C10.6561 18.1655 9.49337 20.1452 8.83793 20.725C8.83793 20.725 9.71706 20.9381 10.3981 20.7573C9.31295 21.3937 8.37445 21.0869 8.28568 21.0554L8.28476 21.055C8.28072 21.0536 8.27805 21.0528 8.27805 21.0528L8.27785 21.0532C8.16568 21.0127 8.03845 21.0133 7.92107 21.0659C7.68128 21.1736 7.57419 21.4553 7.6818 21.6952C7.72416 21.7893 7.79358 21.8622 7.87642 21.9103C7.56304 21.9111 7.35395 21.869 7.30715 21.8581L7.30585 21.8581C7.29998 21.8567 7.29594 21.8557 7.29594 21.8557L7.29574 21.8564C7.13247 21.8186 6.95493 21.8407 6.79974 21.9339C6.48271 22.1245 6.38025 22.5359 6.5707 22.8529C6.66697 23.0126 6.81942 23.1178 6.98745 23.1584C8.08082 23.373 9.09174 22.8996 9.86704 22.1312C9.44651 22.7593 9.10706 23.2102 9.10706 23.2102H11.1H13.0929C13.0929 23.2102 12.7535 22.7593 12.3329 22.1313C13.1082 22.8996 14.1192 23.373 15.2126 23.1584C15.3806 23.1178 15.5331 23.0126 15.6293 22.8529C15.8197 22.5359 15.7173 22.1245 15.4002 21.9339C15.245 21.8407 15.0675 21.8186 14.9042 21.8564L14.904 21.8557C14.904 21.8557 14.9 21.8567 14.8941 21.8581L14.8929 21.8581C14.846 21.869 14.6369 21.9111 14.3236 21.9103C14.4064 21.8622 14.4758 21.7893 14.5182 21.6952C14.6259 21.4553 14.5187 21.1736 14.279 21.0659C14.1615 21.0133 14.0344 21.0127 13.9221 21.0532L13.9219 21.0528C13.9219 21.0528 13.9193 21.0536 13.9152 21.055L13.9143 21.0554C13.8255 21.0869 12.887 21.3937 11.8019 20.7573C12.4829 20.9381 13.362 20.725 13.362 20.725C12.7066 20.1452 11.5439 18.1655 11.5439 18.1655C11.5439 18.1655 13.0889 20.1849 15.5209 20.4078C15.5357 20.4092 15.5509 20.4101 15.5658 20.4112C15.6198 20.4157 15.6737 20.4202 15.7285 20.4228C15.8011 20.4262 15.8742 20.4284 15.9483 20.4285C15.9505 20.4285 15.9528 20.4287 15.955 20.4287C18.9622 20.4287 21.4 17.9909 21.4 14.9838C21.4 14.0087 21.1191 12.9697 20.6501 11.9143Z" fill="white"/>
</svg>
