<svg width="24" height="24" viewBox="0 0 24 24" fill="none" xmlns="http://www.w3.org/2000/svg">
<path fill-rule="evenodd" clip-rule="evenodd" d="M19.2727 6H14.7273C13.7231 6 12.9091 6.89543 12.9091 8V17C12.9091 17.5523 13.3161 18 13.8182 18H19.2727C19.7748 18 20.1818 17.5523 20.1818 17V7C20.1818 6.44772 19.7748 6 19.2727 6ZM10.1818 20C10.5006 20 10.8066 19.9398 11.0909 19.8293V20C11.0909 20.5523 11.4979 21 12 21C12.5021 21 12.9091 20.5523 12.9091 20V19.8293C13.1934 19.9398 13.4994 20 13.8182 20H19.2727C20.779 20 22 18.6569 22 17V7C22 5.34315 20.779 4 19.2727 4H14.7273C13.6412 4 12.6663 4.52376 12 5.35418C11.3337 4.52376 10.3588 4 9.27273 4H4.72727C3.22104 4 2 5.34315 2 7V17C2 18.6569 3.22104 20 4.72727 20H10.1818ZM11.0909 8V17C11.0909 17.5523 10.6839 18 10.1818 18H4.72727C4.22519 18 3.81818 17.5523 3.81818 17V7C3.81818 6.44772 4.22519 6 4.72727 6H9.27273C10.2769 6 11.0909 6.89543 11.0909 8ZM18.3636 8H14.7273V10H18.3636V8ZM9.27273 8H5.63636V10H9.27273V8ZM5.63636 11H9.27273V13H5.63636V11ZM18.3636 11H14.7273V13H18.3636V11ZM5.63636 14H9.27273V16H5.63636V14ZM18.3636 14H14.7273V16H18.3636V14Z" fill="#27272F"/>
</svg>
