<svg width="24" height="24" viewBox="0 0 24 24" fill="none" xmlns="http://www.w3.org/2000/svg">
<path fill-rule="evenodd" clip-rule="evenodd" d="M16.9839 4.00939H14.811C14.4023 2.83969 13.2829 2 11.9661 2C10.6492 2 9.52988 2.83969 9.12111 4.00939H6.94824C5.28548 4.00939 3.93755 5.34822 3.93755 6.99976V9.18889C2.80469 9.61827 2 10.7076 2 11.9837C2 13.2597 2.80469 14.3491 3.93755 14.7785V16.9676C3.93755 18.6192 5.28548 19.958 6.94824 19.958H9.10992C9.50915 21.1447 10.637 22 11.9661 22C13.2951 22 14.423 21.1447 14.8222 19.958H16.9839C18.6467 19.958 19.9946 18.6192 19.9946 16.9676V14.8033C21.163 14.3923 22 13.2851 22 11.9837C22 10.6823 21.163 9.57509 19.9946 9.16409V6.99976C19.9946 5.34822 18.6467 4.00939 16.9839 4.00939ZM5.94468 14.8274V16.9676C5.94468 17.5181 6.39399 17.9644 6.94824 17.9644H9.1444C9.57115 16.8283 10.6735 16.0193 11.9661 16.0193C13.2586 16.0193 14.361 16.8283 14.7877 17.9644H16.9839C17.5381 17.9644 17.9875 17.5181 17.9875 16.9676V14.8045C16.8172 14.3945 15.9786 13.2864 15.9786 11.9837C15.9786 10.681 16.8172 9.57292 17.9875 9.16289V6.99976C17.9875 6.44925 17.5381 6.00297 16.9839 6.00297H14.7998C14.382 7.15615 13.271 7.98073 11.9661 7.98073C10.6611 7.98073 9.55013 7.15615 9.13237 6.00297H6.94824C6.39399 6.00297 5.94468 6.44925 5.94468 6.99976V9.14001C7.15023 9.53038 8.02139 10.656 8.02139 11.9837C8.02139 13.3114 7.15023 14.437 5.94468 14.8274Z" fill="#794DFD"/>
</svg>
