<svg width="24" height="24" viewBox="0 0 24 24" fill="none" xmlns="http://www.w3.org/2000/svg">
<path d="M12 24C9.62665 24 7.30654 23.2962 5.33315 21.9776C3.35976 20.6591 1.8217 18.7849 0.913445 16.5922C0.00519377 14.3995 -0.232439 11.9867 0.230584 9.65892C0.693607 7.33115 1.8365 5.19295 3.51473 3.51472C5.19296 1.83649 7.33116 0.693605 9.65893 0.230582C11.9867 -0.232441 14.3995 0.00519943 16.5922 0.913451C18.7849 1.8217 20.6591 3.35977 21.9777 5.33316C23.2962 7.30655 24 9.62663 24 12C24 15.1826 22.7357 18.2348 20.4853 20.4853C18.2348 22.7357 15.1826 24 12 24ZM12 2.00001C10.0222 2.00001 8.08879 2.58649 6.4443 3.68531C4.79981 4.78412 3.5181 6.34591 2.76122 8.17317C2.00435 10.0004 1.80631 12.0111 2.19216 13.9509C2.57801 15.8907 3.53042 17.6725 4.92895 19.0711C6.32747 20.4696 8.10929 21.422 10.0491 21.8079C11.9889 22.1937 13.9996 21.9957 15.8268 21.2388C17.6541 20.4819 19.2159 19.2002 20.3147 17.5557C21.4135 15.9112 22 13.9778 22 12C22 9.34784 20.9464 6.8043 19.0711 4.92894C17.1957 3.05358 14.6522 2.00001 12 2.00001Z" fill="white"/>
<path d="M16.99 11H5.98999V13H16.99V11Z" fill="white"/>
<path d="M14.04 8.10001L17.99 12.05L14.04 16" fill="white"/>
</svg>
