<svg width="24" height="24" viewBox="0 0 24 24" fill="none" xmlns="http://www.w3.org/2000/svg">
<path fill-rule="evenodd" clip-rule="evenodd" d="M17.1528 15.6591C19.7388 12.3378 19.5053 7.53277 16.4521 4.47959C13.146 1.17347 7.7857 1.17347 4.47959 4.47959C1.17347 7.7857 1.17347 13.146 4.47959 16.4521C7.53277 19.5053 12.3378 19.7388 15.6591 17.1528C15.6734 17.169 15.6883 17.1849 15.7038 17.2004L20.1935 21.6901C20.6068 22.1033 21.2768 22.1033 21.6901 21.6901C22.1033 21.2768 22.1033 20.6068 21.6901 20.1935L17.2004 15.7038C17.1849 15.6883 17.169 15.6734 17.1528 15.6591ZM14.9555 5.97615C17.4351 8.45573 17.4351 12.4759 14.9555 14.9555C12.4759 17.4351 8.45573 17.4351 5.97615 14.9555C3.49656 12.4759 3.49656 8.45573 5.97615 5.97615C8.45573 3.49656 12.4759 3.49656 14.9555 5.97615Z" fill="white"/>
</svg>
