<svg width="40" height="40" viewBox="0 0 40 40" fill="none" xmlns="http://www.w3.org/2000/svg">
<g clip-path="url(#clip0_1_2059)">
<path d="M24.9165 32.3083C21.1893 31.078 18.5915 27.2458 18.4537 22.8362C18.6039 22.1394 18.6825 21.4189 18.6825 20.6842V15.8102H17.635V20.6842C17.635 25.2288 14.6283 29.2251 10.2616 30.4843V33.4374H25.8212V32.607L24.9165 32.3083Z" fill="url(#paint0_linear_1_2059)"/>
<path d="M28.8322 30.2235C25.0014 29.1188 22.3636 25.6128 22.3636 21.6259V15.8102H17.635V20.6842C17.635 21.419 17.5568 22.1394 17.4065 22.8362C17.5443 27.2458 20.1422 31.078 23.8693 32.3083L24.7741 32.607V33.4374H29.737V30.4843L28.8322 30.2235Z" fill="url(#paint1_linear_1_2059)"/>
<path d="M26.9195 30.4528H8.56696C7.85125 30.4528 7.27102 31.0329 7.27102 31.7487V38.2557H28.2154V31.7487C28.2155 31.0329 27.6352 30.4528 26.9195 30.4528Z" fill="url(#paint2_linear_1_2059)"/>
<path d="M31.432 30.4528H26.2468C26.9625 30.4528 27.5428 31.033 27.5428 31.7487V38.2557H32.7279V31.7487C32.7279 31.033 32.1477 30.4528 31.432 30.4528Z" fill="url(#paint3_linear_1_2059)"/>
<path d="M30.8023 39.3299V38.5185C30.8023 37.7252 30.1594 37.082 29.3661 37.0816H6.10718C5.31359 37.0816 4.67023 37.7249 4.67023 38.5185C4.67023 39.3121 5.31359 39.9555 6.10718 39.9555H30.1296L30.8023 39.3299Z" fill="url(#paint4_linear_1_2059)"/>
<path d="M33.8923 37.0818H28.6929C29.4865 37.0818 30.1299 37.7252 30.1299 38.5188L30.1296 39.9555L33.8923 39.9558C34.6859 39.9558 35.3293 39.3124 35.3293 38.5188C35.3293 37.7252 34.6859 37.0818 33.8923 37.0818Z" fill="url(#paint5_linear_1_2059)"/>
<path d="M23.5074 21.3552C23.1791 21.3552 22.8574 21.2426 22.5987 21.0312C22.2649 20.7584 22.0713 20.3501 22.0713 19.9191V4.89428C22.0713 4.10116 22.7142 3.45819 23.5074 3.45819H37.5774C38.3322 3.45819 39.0301 3.80053 39.492 4.39756C39.954 4.99452 40.1103 5.756 39.921 6.4867L38.2617 12.8883C37.3808 16.2862 34.72 18.9328 31.3175 19.7953C31.2953 19.8009 31.2731 19.806 31.2506 19.8105L23.7934 21.3265C23.6986 21.3458 23.6027 21.3552 23.5074 21.3552ZM24.9436 6.33037V18.1617L30.6434 17.003C33.0144 16.3899 34.8665 14.5398 35.4814 12.1676L36.9945 6.33045L24.9436 6.33037Z" fill="url(#paint6_linear_1_2059)"/>
<path d="M16.4921 21.3552C16.3968 21.3552 16.3011 21.3458 16.206 21.3265L8.74879 19.8105C8.72645 19.806 8.70418 19.8008 8.68207 19.7953C5.2795 18.9327 2.61864 16.2862 1.73793 12.8882L0.0785573 6.4867C-0.110896 5.75608 0.0453542 4.99459 0.507385 4.39764C0.969339 3.80061 1.66723 3.45819 2.42207 3.45819H16.4921C17.2852 3.45819 17.9282 4.10116 17.9282 4.89428V19.9191C17.9282 20.3501 17.7346 20.7584 17.4007 21.0312C17.1422 21.2426 16.8204 21.3552 16.4921 21.3552ZM9.35621 17.003L15.0561 18.1617V6.33037H3.0052L4.51825 12.1675C5.13309 14.5398 6.9852 16.3898 9.35621 17.003Z" fill="url(#paint7_linear_1_2059)"/>
<path d="M26.5151 9.07839V1.80605H9.21459V8.82675C9.21459 14.5865 12.3327 19.895 17.3634 22.6996C17.7376 22.9083 18.1305 23.0693 18.5334 23.1826C23.4744 20.216 26.5151 14.8672 26.5151 9.07839Z" fill="url(#paint8_linear_1_2059)"/>
<path d="M25.5876 1.80605V8.82675C25.5876 14.5865 22.4695 19.895 17.4387 22.6996C17.4261 22.7066 17.4136 22.7136 17.401 22.7204C19.0325 23.6132 21.0094 23.6062 22.6356 22.6996C27.6663 19.8949 30.7845 14.5865 30.7845 8.82675V1.80605H25.5876Z" fill="url(#paint9_linear_1_2059)"/>
<path d="M29.353 1.75146V0.605449L28.2393 0.0444336H8.27006C7.32733 0.0444336 6.56311 0.808652 6.56311 1.75139C6.56311 2.69412 7.32733 3.45834 8.27006 3.45834H27.646C28.5887 3.4585 29.353 2.6942 29.353 1.75146Z" fill="url(#paint10_linear_1_2059)"/>
<path d="M31.7292 0.0445489L28.2393 0.0444336L28.2393 1.7515C28.2393 2.69424 27.475 3.45846 26.5324 3.45846H31.7293C32.672 3.45846 33.4362 2.69424 33.4362 1.7515C33.4362 0.808768 32.6719 0.0445489 31.7292 0.0445489Z" fill="url(#paint11_linear_1_2059)"/>
<path d="M27.5427 34.5226H12.4562C12.1185 34.5226 11.8447 34.2488 11.8447 33.9111C11.8447 33.5734 12.1185 33.2996 12.4562 33.2996H27.5427C27.8805 33.2996 28.1542 33.5734 28.1542 33.9111C28.1542 34.2488 27.8805 34.5226 27.5427 34.5226Z" fill="#F4FBFF"/>
<path d="M20.4676 7.64453L21.3695 10.1152C21.4389 10.3053 21.6167 10.4345 21.8189 10.4417L24.4474 10.536C24.911 10.5527 25.1014 11.1387 24.7362 11.4246L22.6651 13.0459C22.5057 13.1706 22.4378 13.3795 22.4935 13.5741L23.216 16.1031C23.3435 16.5491 22.8449 16.9113 22.4601 16.6523L20.2781 15.1836C20.1103 15.0706 19.8906 15.0706 19.7228 15.1836L17.5408 16.6523C17.156 16.9113 16.6574 16.5491 16.7849 16.1031L17.5074 13.5741C17.5631 13.3795 17.4952 13.1705 17.3358 13.0459L15.2647 11.4246C14.8995 11.1387 15.0899 10.5527 15.5534 10.536L18.182 10.4417C18.3842 10.4345 18.5619 10.3054 18.6313 10.1152L19.5333 7.64453C19.6923 7.20882 20.3085 7.20882 20.4676 7.64453Z" fill="#F4FBFF"/>
</g>
<defs>
<linearGradient id="paint0_linear_1_2059" x1="19.9997" y1="0.0444336" x2="19.9997" y2="39.9558" gradientUnits="userSpaceOnUse">
<stop stop-color="#FFC700"/>
<stop offset="1" stop-color="#FF7A00"/>
</linearGradient>
<linearGradient id="paint1_linear_1_2059" x1="19.9997" y1="0.0444336" x2="19.9997" y2="39.9558" gradientUnits="userSpaceOnUse">
<stop stop-color="#FFC700"/>
<stop offset="1" stop-color="#FF7A00"/>
</linearGradient>
<linearGradient id="paint2_linear_1_2059" x1="19.9997" y1="0.0444336" x2="19.9997" y2="39.9558" gradientUnits="userSpaceOnUse">
<stop stop-color="#FFC700"/>
<stop offset="1" stop-color="#FF7A00"/>
</linearGradient>
<linearGradient id="paint3_linear_1_2059" x1="19.9997" y1="0.0444336" x2="19.9997" y2="39.9558" gradientUnits="userSpaceOnUse">
<stop stop-color="#FFC700"/>
<stop offset="1" stop-color="#FF7A00"/>
</linearGradient>
<linearGradient id="paint4_linear_1_2059" x1="19.9997" y1="0.0444336" x2="19.9997" y2="39.9558" gradientUnits="userSpaceOnUse">
<stop stop-color="#FFC700"/>
<stop offset="1" stop-color="#FF7A00"/>
</linearGradient>
<linearGradient id="paint5_linear_1_2059" x1="19.9997" y1="0.0444336" x2="19.9997" y2="39.9558" gradientUnits="userSpaceOnUse">
<stop stop-color="#FFC700"/>
<stop offset="1" stop-color="#FF7A00"/>
</linearGradient>
<linearGradient id="paint6_linear_1_2059" x1="19.9997" y1="0.0444336" x2="19.9997" y2="39.9558" gradientUnits="userSpaceOnUse">
<stop stop-color="#FFC700"/>
<stop offset="1" stop-color="#FF7A00"/>
</linearGradient>
<linearGradient id="paint7_linear_1_2059" x1="19.9997" y1="0.0444336" x2="19.9997" y2="39.9558" gradientUnits="userSpaceOnUse">
<stop stop-color="#FFC700"/>
<stop offset="1" stop-color="#FF7A00"/>
</linearGradient>
<linearGradient id="paint8_linear_1_2059" x1="19.9997" y1="0.0444336" x2="19.9997" y2="39.9558" gradientUnits="userSpaceOnUse">
<stop stop-color="#FFC700"/>
<stop offset="1" stop-color="#FF7A00"/>
</linearGradient>
<linearGradient id="paint9_linear_1_2059" x1="19.9997" y1="0.0444336" x2="19.9997" y2="39.9558" gradientUnits="userSpaceOnUse">
<stop stop-color="#FFC700"/>
<stop offset="1" stop-color="#FF7A00"/>
</linearGradient>
<linearGradient id="paint10_linear_1_2059" x1="19.9997" y1="0.0444336" x2="19.9997" y2="39.9558" gradientUnits="userSpaceOnUse">
<stop stop-color="#FFC700"/>
<stop offset="1" stop-color="#FF7A00"/>
</linearGradient>
<linearGradient id="paint11_linear_1_2059" x1="19.9997" y1="0.0444336" x2="19.9997" y2="39.9558" gradientUnits="userSpaceOnUse">
<stop stop-color="#FFC700"/>
<stop offset="1" stop-color="#FF7A00"/>
</linearGradient>
<clipPath id="clip0_1_2059">
<rect width="40" height="40" fill="white"/>
</clipPath>
</defs>
</svg>
